# Blender v2.76 (sub 0) OBJ File: ''
# www.blender.org
mtllib island.mtl
o Plane
v -1.035908 0.000000 1.035908
v 1.035908 0.000000 1.035908
v -1.035908 0.000000 -1.035908
v 1.035908 0.000000 -1.035908
v -1.035908 0.000000 -0.776931
v -1.035908 0.000000 -0.517954
v -1.035908 0.000000 -0.258977
v -1.035908 0.000000 0.000000
v -1.035908 0.000000 0.258977
v -1.035908 0.000000 0.517954
v -1.035908 0.000000 0.776931
v 1.035908 0.000000 0.776931
v 1.035908 0.000000 0.517954
v 1.035908 0.000000 0.258977
v 1.035908 0.000000 -0.000000
v 1.035908 0.000000 -0.258977
v 1.035908 0.000000 -0.517954
v 1.035908 0.000000 -0.776931
v -0.739935 0.000000 1.035908
v -0.443961 0.000000 1.035908
v -0.147987 0.000000 1.035908
v 0.147987 0.000000 1.035908
v 0.443961 0.000000 1.035908
v 0.739935 0.000000 1.035908
v 0.739935 0.000000 -1.035908
v 0.443961 0.000000 -1.035908
v 0.147987 0.000000 -1.035908
v -0.147987 0.000000 -1.035908
v -0.443961 0.000000 -1.035908
v -0.739935 0.000000 -1.035908
v 0.739935 0.000000 0.776931
v 0.443961 0.000000 0.776931
v 0.147987 0.146240 0.776931
v -0.147987 0.000000 0.776931
v -0.443961 0.000000 0.776931
v -0.739935 0.000000 0.776931
v 0.739935 0.142528 0.517954
v 0.443961 0.142528 0.517954
v 0.147987 0.288768 0.517954
v -0.147987 0.142528 0.517954
v -0.443961 0.142528 0.517954
v -0.739935 0.000000 0.517954
v 0.739935 0.142528 0.258977
v 0.443961 0.142528 0.375769
v 0.147987 0.288768 0.375769
v -0.147987 0.142528 0.375769
v -0.443961 0.142528 0.375769
v -0.739935 0.000000 0.258977
v 0.739935 0.142528 -0.000000
v 0.443961 0.142528 -0.000000
v 0.147987 0.142528 -0.000000
v -0.147987 0.276182 0.000000
v -0.443961 0.276182 0.000000
v -0.739935 0.133654 0.000000
v 0.739935 0.142528 -0.258977
v 0.443961 0.142528 -0.258977
v 0.147987 0.188016 -0.273303
v -0.147987 0.321670 -0.246502
v -0.443961 0.276182 -0.258977
v -0.739935 0.133654 -0.258977
v 0.739935 0.045488 -0.675984
v 0.443961 0.045488 -0.675984
v 0.147987 0.045488 -0.675984
v -0.147987 0.179142 -0.675984
v -0.443961 0.133654 -0.517954
v -0.739935 0.133654 -0.517954
v 0.739935 0.045488 -0.934961
v 0.443961 0.045488 -0.934961
v 0.147987 0.045488 -0.934961
v -0.147987 0.179142 -0.934961
v -0.443961 0.133654 -0.776931
v -0.739935 0.133654 -0.776931
vn 0.109100 0.986200 -0.124600
vn 0.000000 1.000000 0.000000
vn 0.226100 0.939200 0.258400
vn 0.433900 0.901000 0.000000
vn 0.332300 0.933600 -0.134000
vn 0.151900 0.988400 0.000000
vn -0.411600 0.911400 0.000000
vn -0.151900 0.988400 0.000000
vn 0.411600 0.911400 0.000000
vn -0.226100 0.939200 -0.258400
vn -0.229800 0.899200 -0.372300
vn 0.381400 0.874500 -0.299600
vn 0.080300 0.956700 -0.279600
vn 0.000000 0.974000 -0.226700
vn -0.433900 0.901000 0.000000
vn -0.078200 0.992900 0.089400
vn 0.412300 0.897400 0.157100
vn 0.074300 0.993600 0.084900
vn -0.213600 0.945900 0.244100
vn -0.461600 0.817500 0.344300
vn 0.000000 0.942200 0.335100
vn -0.021300 0.999600 -0.016700
vn 0.235700 0.953900 -0.185600
vn -0.443000 0.896500 0.000000
vn 0.443000 0.896500 0.000000
vn -0.226100 0.939200 0.258400
vn 0.000000 0.876100 0.482200
vn -0.397300 0.804000 0.442500
vn 0.397300 0.804000 0.442500
vn -0.231300 0.936300 0.264400
vn 0.231300 0.936300 0.264400
vn -0.213600 0.945900 -0.244100
vn 0.000000 0.888600 -0.458600
vn -0.227000 0.735100 -0.638800
vn 0.149200 0.661000 -0.735400
vn 0.000000 0.911700 -0.410800
usemtl None
s off
f 67//1 18//1 4//1 25//1
f 24//2 2//2 12//2 31//2
f 31//3 12//3 13//3 37//3
f 37//4 13//4 14//4 43//4
f 43//4 14//4 15//4 49//4
f 49//4 15//4 16//4 55//4
f 55//5 16//5 17//5 61//5
f 61//6 17//6 18//6 67//6
f 6//7 66//7 72//7 5//7
f 66//2 65//2 71//2 72//2
f 65//8 64//8 70//8 71//8
f 64//9 63//9 69//9 70//9
f 63//2 62//2 68//2 69//2
f 62//2 61//2 67//2 68//2
f 7//7 60//7 66//7 6//7
f 60//10 59//10 65//10 66//10
f 59//11 58//11 64//11 65//11
f 58//12 57//12 63//12 64//12
f 57//13 56//13 62//13 63//13
f 56//14 55//14 61//14 62//14
f 8//7 54//7 60//7 7//7
f 54//15 53//15 59//15 60//15
f 53//16 52//16 58//16 59//16
f 52//17 51//17 57//17 58//17
f 51//18 50//18 56//18 57//18
f 50//2 49//2 55//2 56//2
f 9//19 48//19 54//19 8//19
f 48//20 47//20 53//20 54//20
f 47//21 46//21 52//21 53//21
f 46//22 45//22 51//22 52//22
f 45//23 44//23 50//23 51//23
f 44//2 43//2 49//2 50//2
f 10//2 42//2 48//2 9//2
f 42//15 41//15 47//15 48//15
f 41//2 40//2 46//2 47//2
f 40//24 39//24 45//24 46//24
f 39//25 38//25 44//25 45//25
f 38//2 37//2 43//2 44//2
f 11//2 36//2 42//2 10//2
f 36//26 35//26 41//26 42//26
f 35//27 34//27 40//27 41//27
f 34//28 33//28 39//28 40//28
f 33//29 32//29 38//29 39//29
f 32//27 31//27 37//27 38//27
f 1//2 19//2 36//2 11//2
f 19//2 20//2 35//2 36//2
f 20//2 21//2 34//2 35//2
f 21//30 22//30 33//30 34//30
f 22//31 23//31 32//31 33//31
f 23//2 24//2 31//2 32//2
f 5//32 72//32 30//32 3//32
f 72//33 71//33 29//33 30//33
f 71//34 70//34 28//34 29//34
f 70//35 69//35 27//35 28//35
f 69//36 68//36 26//36 27//36
f 68//36 67//36 25//36 26//36
