# Blender v2.76 (sub 0) OBJ File: 'landing.blend'
# www.blender.org
mtllib landing.mtl
o Plane
v 2.905676 0.000000 2.905676
v 2.905676 0.000000 -2.905676
v 2.905676 0.000000 2.628945
v 2.905676 0.000000 2.352214
v 2.905676 0.000000 2.075483
v 2.905676 0.000000 1.798752
v 2.905676 0.000000 1.522021
v 2.905676 0.000000 1.245290
v 2.905676 0.000000 0.968559
v 2.905676 0.000000 0.691828
v 2.905676 0.000000 0.415097
v 2.905676 0.000000 0.138366
v 2.905676 0.000000 -0.138366
v 2.905676 0.000000 -0.415097
v 2.905676 0.000000 -0.691828
v 2.905676 0.000000 -0.968559
v 2.905676 0.000000 -1.245290
v 2.905676 0.000000 -1.522021
v 2.905676 0.000000 -1.798752
v 2.905676 0.000000 -2.075483
v 2.905676 0.000000 -2.352214
v 2.905676 0.000000 -2.628945
v 0.691828 0.000000 2.905676
v 0.968559 0.000000 2.905676
v 1.245290 0.000000 2.905676
v 1.522021 0.000000 2.905676
v 1.798752 0.000000 2.905676
v 2.075483 0.000000 2.905676
v 2.352214 0.000000 2.905676
v 2.628945 0.000000 2.905676
v 2.628945 0.000000 -2.905676
v 2.352214 0.000000 -2.905676
v 2.075483 0.000000 -2.905676
v 1.798752 0.000000 -2.905676
v 1.522021 0.000000 -2.905676
v 1.245290 0.000000 -2.905676
v 0.968559 0.000000 -2.905676
v 0.691828 0.000000 -2.905676
v 2.628945 0.223519 2.628945
v 2.352214 0.223519 2.628945
v 2.075483 0.223519 2.628945
v 1.798752 0.223519 2.628945
v 1.522021 0.223519 2.628945
v 1.245290 0.223519 2.628945
v 0.968559 0.223519 2.628945
v 0.691828 -0.017174 2.628945
v 2.628945 0.223519 2.352214
v 2.352214 0.468751 2.352214
v 2.075483 0.642865 2.352214
v 1.798752 0.642865 2.352214
v 1.522021 0.642865 2.352214
v 1.245290 0.642865 2.352214
v 0.968559 0.468751 2.352214
v 0.691828 0.012264 2.352214
v 2.628945 0.304028 2.075483
v 2.352214 0.468751 2.075483
v 2.075483 0.642865 2.075483
v 1.245290 0.642865 2.075483
v 0.968559 0.468751 2.075483
v 0.691828 0.012264 2.075483
v 2.628945 0.304028 1.798752
v 2.352214 0.468751 1.798752
v 2.075483 0.642865 1.798752
v 1.245290 0.642865 1.798752
v 0.968559 0.468751 1.798752
v 0.691828 0.012264 1.798752
v 2.628945 0.304028 1.522021
v 2.352214 0.468751 1.522021
v 2.075483 0.642865 1.522021
v 1.245290 0.642865 1.522021
v 0.968559 0.468751 1.522021
v 0.691828 0.012264 1.522021
v 2.628945 0.304028 1.245290
v 2.352214 0.468751 1.245290
v 2.075483 0.642865 1.245290
v 1.245290 0.642865 1.245290
v 0.968559 0.468751 1.245290
v 0.691828 0.012264 1.245290
v 2.628945 0.304028 0.968559
v 2.352214 0.468751 0.968559
v 2.075483 0.642865 0.968559
v 1.245290 0.642865 0.968559
v 0.968559 0.468751 0.968559
v 0.691828 0.012264 0.968559
v 2.628945 0.304028 0.691828
v 2.352214 0.468751 0.691828
v 2.075483 0.642865 0.691828
v 1.245290 0.642865 0.691828
v 0.968559 0.468751 0.691828
v 0.691828 0.012264 0.691828
v 2.628945 0.304028 0.415097
v 2.352214 0.468751 0.415097
v 2.075483 0.642865 0.415097
v 1.245290 0.642865 0.415097
v 0.968559 0.468751 0.415097
v 0.691828 0.012264 0.415097
v 2.628945 0.304028 0.138366
v 2.352214 0.468751 0.138366
v 2.075483 0.642865 0.138366
v 1.245290 0.642865 0.138366
v 0.968559 0.468751 0.138366
v 0.691828 0.012264 0.138366
v 2.628945 0.304028 -0.138366
v 2.352214 0.468751 -0.138366
v 2.075483 0.642865 -0.138366
v 1.245290 0.642865 -0.138366
v 0.968559 0.468751 -0.138366
v 0.691828 0.012264 -0.138366
v 2.628945 0.374623 -0.415097
v 2.352214 0.468751 -0.415097
v 2.075483 0.642865 -0.415097
v 1.245290 0.642865 -0.415097
v 0.968559 0.468751 -0.415097
v 0.691828 0.012264 -0.415097
v 2.628945 0.374623 -0.691828
v 2.352214 0.468751 -0.691828
v 2.075483 0.642865 -0.691828
v 1.245290 0.642865 -0.691828
v 0.968559 0.468751 -0.691828
v 0.691828 0.012264 -0.691828
v 2.628945 0.374623 -0.968559
v 2.352214 0.468751 -0.968559
v 2.075483 0.642865 -0.968559
v 1.245290 0.642865 -0.968559
v 0.968559 0.468751 -0.968559
v 0.691828 0.012264 -0.968559
v 2.628945 0.374623 -1.245290
v 2.352214 0.468751 -1.245290
v 2.075483 0.642865 -1.245290
v 1.245290 0.642865 -1.245290
v 0.968559 0.468751 -1.245290
v 0.691828 0.012264 -1.245290
v 2.628945 0.374623 -1.522021
v 2.352214 0.468751 -1.522021
v 2.075483 0.642865 -1.522021
v 1.245290 0.642865 -1.522021
v 0.968559 0.468751 -1.522021
v 0.691828 0.012264 -1.522021
v 2.628945 0.374623 -1.798752
v 2.352214 0.468751 -1.798752
v 2.075483 0.642865 -1.798752
v 1.245290 0.642865 -1.798752
v 0.968559 0.468751 -1.798752
v 0.691828 0.012264 -1.798752
v 2.628945 0.468751 -2.075483
v 2.352214 0.468751 -2.075483
v 2.075483 0.642865 -2.075483
v 1.245290 0.642865 -2.075483
v 0.968559 0.468751 -2.075483
v 0.691828 0.012264 -2.075483
v 2.628945 0.280496 -2.352214
v 2.352214 0.468751 -2.352214
v 2.075483 0.642865 -2.352214
v 1.798752 0.642865 -2.352214
v 1.522021 0.642865 -2.352214
v 1.245290 0.642865 -2.352214
v 0.968559 0.468751 -2.352214
v 0.691828 0.012264 -2.352214
v 2.628945 0.280496 -2.628945
v 2.352214 0.468751 -2.628945
v 2.075483 0.468751 -2.628945
v 1.798752 0.468751 -2.628945
v 1.522021 0.468751 -2.628945
v 1.245290 0.258122 -2.628945
v 0.968559 0.258122 -2.628945
v 0.691828 0.017429 -2.628945
vt 0.953619 0.890316
vt 0.950969 0.931590
vt 0.912667 0.928718
vt 0.935021 0.093218
vt 0.977042 0.093627
vt 0.963875 0.140881
vt 0.971793 0.179888
vt 0.918460 0.190489
vt 0.964183 0.229331
vt 0.920840 0.226014
vt 0.967617 0.269204
vt 0.922795 0.263128
vt 0.969858 0.309189
vt 0.924198 0.301106
vt 0.971242 0.349210
vt 0.925096 0.339622
vt 0.971980 0.389233
vt 0.925558 0.378464
vt 0.972207 0.429239
vt 0.925648 0.417501
vt 0.972001 0.469218
vt 0.925407 0.456633
vt 0.971402 0.509158
vt 0.924857 0.495778
vt 0.970417 0.549044
vt 0.923998 0.534864
vt 0.969030 0.588861
vt 0.922810 0.573822
vt 0.967201 0.628591
vt 0.921261 0.612589
vt 0.964866 0.668214
vt 0.919298 0.651088
vt 0.961927 0.707704
vt 0.916859 0.689235
vt 0.958246 0.747020
vt 0.913862 0.726894
vt 0.953620 0.786101
vt 0.910217 0.763883
vt 0.947743 0.824829
vt 0.905858 0.799848
vt 0.952839 0.853129
vt 0.901024 0.834062
vt 0.897228 0.865128
vt 0.699951 0.825651
vt 0.699043 0.863018
vt 0.664971 0.861610
vt 0.738393 0.822608
vt 0.733940 0.864396
vt 0.769881 0.824040
vt 0.768314 0.866108
vt 0.802078 0.824761
vt 0.802123 0.866556
vt 0.833134 0.825277
vt 0.835838 0.865281
vt 0.869470 0.830847
vt 0.868076 0.864808
vt 0.699594 0.789201
vt 0.666027 0.825302
vt 0.738305 0.788517
vt 0.002713 -0.000420
vt 0.125372 -0.000420
vt 0.125372 0.996653
vt 0.002713 0.996653
vt 0.873302 0.795679
vt 0.699395 0.753412
vt 0.666254 0.789234
vt 0.738431 0.753299
vt 0.876577 0.760105
vt 0.835016 0.791737
vt 0.699255 0.717625
vt 0.666212 0.753535
vt 0.738694 0.717619
vt 0.879450 0.723669
vt 0.837284 0.756741
vt 0.698957 0.681453
vt 0.666017 0.718002
vt 0.738941 0.681294
vt 0.881891 0.686564
vt 0.839336 0.720719
vt 0.698493 0.644746
vt 0.665282 0.682147
vt 0.739055 0.644544
vt 0.883919 0.648904
vt 0.841088 0.684119
vt 0.698017 0.607524
vt 0.664139 0.645503
vt 0.739118 0.607235
vt 0.885572 0.610843
vt 0.842603 0.646843
vt 0.697588 0.569868
vt 0.663192 0.608235
vt 0.739118 0.569589
vt 0.886892 0.572452
vt 0.843822 0.609205
vt 0.697150 0.531829
vt 0.662458 0.570511
vt 0.739104 0.531479
vt 0.887918 0.533837
vt 0.844834 0.571128
vt 0.696648 0.493243
vt 0.661715 0.532652
vt 0.739088 0.493040
vt 0.888680 0.495059
vt 0.845617 0.532837
vt 0.696329 0.453975
vt 0.660527 0.494104
vt 0.739202 0.454288
vt 0.889203 0.456210
vt 0.846240 0.494306
vt 0.696789 0.414702
vt 0.659108 0.454092
vt 0.739620 0.415501
vt 0.889492 0.417384
vt 0.846718 0.455688
vt 0.697758 0.375532
vt 0.660085 0.413811
vt 0.740342 0.376780
vt 0.889538 0.378683
vt 0.847073 0.417095
vt 0.699038 0.336657
vt 0.661403 0.374152
vt 0.741323 0.338262
vt 0.889313 0.340224
vt 0.847306 0.378642
vt 0.700589 0.298045
vt 0.662983 0.334995
vt 0.742517 0.300122
vt 0.888783 0.302135
vt 0.847402 0.340470
vt 0.702543 0.259780
vt 0.664619 0.296124
vt 0.744078 0.262365
vt 0.887903 0.264622
vt 0.847381 0.302627
vt 0.704897 0.221719
vt 0.667093 0.257309
vt 0.746019 0.225305
vt 0.886649 0.227814
vt 0.847180 0.265467
vt 0.708144 0.182855
vt 0.669620 0.219033
vt 0.748199 0.189317
vt 0.885155 0.191592
vt 0.847219 0.228897
vt 0.710094 0.143633
vt 0.671947 0.180609
vt 0.746563 0.145488
vt 0.782847 0.146355
vt 0.781382 0.190757
vt 0.817992 0.148760
vt 0.815069 0.192070
vt 0.852544 0.152348
vt 0.847205 0.194182
vt 0.886149 0.155391
vt 0.915071 0.159375
vt 0.713126 0.065002
vt 0.673726 0.141891
vt 0.750705 0.066992
vt 0.787739 0.069356
vt 0.825146 0.072661
vt 0.862456 0.077485
vt 0.898934 0.083964
vt 0.695291 0.937230
vt 0.659751 0.934443
vt 0.730845 0.939305
vt 0.767074 0.940588
vt 0.803285 0.940571
vt 0.839034 0.939226
vt 0.875074 0.936175
vt 0.675492 0.063653
vn 0.000000 1.000000 0.000000
vn 0.628300 0.777900 0.000000
vn 0.739500 0.673100 0.000000
vn 0.804300 0.594200 0.000000
vn 0.861100 0.508400 0.000000
vn 0.711900 0.702300 0.000000
vn -0.569100 0.654300 -0.498000
vn -0.344800 0.548100 -0.762000
vn -0.541600 0.711500 -0.447700
vn 0.000000 0.846400 -0.532500
vn 0.562500 0.826800 0.000000
vn -0.855100 0.518400 0.000000
vn -0.532500 0.846400 0.000000
vn 0.000000 -1.000000 0.000000
vn 0.532500 0.846400 0.000000
vn 0.490200 0.720600 -0.490200
vn 0.000000 0.946700 0.322000
vn 0.322000 0.946700 0.000000
vn 0.313000 0.920300 0.234800
vn 0.511500 0.859300 0.000000
vn 0.496200 0.833600 0.242500
vn -0.777100 0.471100 0.417500
vn -0.327400 0.520400 0.788600
vn 0.000000 0.550800 0.834600
vn 0.000000 0.748400 0.663200
vn 0.663200 0.748400 0.000000
vn -0.560400 0.644300 0.520400
vn 0.000000 0.777900 0.628300
vn 0.000000 0.731300 -0.682100
vn 0.000000 0.508400 -0.861100
vn 0.000000 0.702300 -0.711900
vn 0.579900 0.572100 -0.579900
vn 0.532000 0.658700 0.532000
vn 0.612800 0.758700 0.220700
vn 0.728900 0.663400 0.169200
vn 0.788400 0.582400 0.198100
vn 0.813800 0.480500 -0.326800
vn -0.855100 0.518400 0.009700
vn 0.000000 0.795700 -0.605700
vn 0.000000 0.583900 -0.811800
vn 0.470000 0.747100 -0.470000
vn -0.654200 0.752100 0.080000
vn 0.327400 0.520400 0.788600
vn 0.000000 0.998100 -0.061900
vn -0.655500 0.753700 -0.047500
vn -0.486300 0.639000 -0.596000
vn 0.326800 0.480500 -0.813800
usemtl Material.001
s off
f 22/1/1 2/2/1 31/3/1
f 30/4/1 1/5/1 3/6/1
f 3/6/2 4/7/2 47/8/2
f 4/7/3 5/9/3 55/10/3
f 5/9/3 6/11/3 61/12/3
f 6/11/3 7/13/3 67/14/3
f 7/13/3 8/15/3 73/16/3
f 8/15/3 9/17/3 79/18/3
f 9/17/3 10/19/3 85/20/3
f 10/19/3 11/21/3 91/22/3
f 11/21/3 12/23/3 97/24/3
f 12/23/3 13/25/3 103/26/3
f 13/25/4 14/27/4 109/28/4
f 14/27/4 15/29/4 115/30/4
f 15/29/4 16/31/4 121/32/4
f 16/31/4 17/33/4 127/34/4
f 17/33/4 18/35/4 133/36/4
f 18/35/4 19/37/4 139/38/4
f 19/37/5 20/39/5 145/40/5
f 20/39/6 21/41/6 151/42/6
f 21/41/6 22/1/6 159/43/6
f 157/44/7 165/45/7 166/46/7
f 157/44/8 156/47/8 164/48/8
f 155/49/9 163/50/9 164/48/9
f 154/51/10 162/52/10 163/50/10
f 153/53/10 161/54/10 162/52/10
f 152/55/1 160/56/1 161/54/1
f 151/42/11 159/43/11 160/56/11
f 149/57/12 157/44/12 158/58/12
f 148/59/13 156/47/13 157/44/13
f 49/60/14 52/61/14 156/62/14
f 156/62/14 153/63/14 49/60/14
f 146/64/15 152/55/15 153/53/15
f 145/40/16 151/42/16 152/55/16
f 143/65/12 149/57/12 150/66/12
f 142/67/13 148/59/13 149/57/13
f 140/68/15 146/64/15 147/69/15
f 139/38/17 145/40/17 146/64/17
f 137/70/12 143/65/12 144/71/12
f 136/72/13 142/67/13 143/65/13
f 134/73/15 140/68/15 141/74/15
f 133/36/18 139/38/18 140/68/18
f 131/75/12 137/70/12 138/76/12
f 130/77/13 136/72/13 137/70/13
f 128/78/15 134/73/15 135/79/15
f 127/34/18 133/36/18 134/73/18
f 125/80/12 131/75/12 132/81/12
f 124/82/13 130/77/13 131/75/13
f 122/83/15 128/78/15 129/84/15
f 121/32/18 127/34/18 128/78/18
f 119/85/12 125/80/12 126/86/12
f 118/87/13 124/82/13 125/80/13
f 116/88/15 122/83/15 123/89/15
f 115/30/18 121/32/18 122/83/18
f 113/90/12 119/85/12 120/91/12
f 112/92/13 118/87/13 119/85/13
f 110/93/15 116/88/15 117/94/15
f 109/28/18 115/30/18 116/88/18
f 107/95/12 113/90/12 114/96/12
f 106/97/13 112/92/13 113/90/13
f 104/98/15 110/93/15 111/99/15
f 103/26/19 109/28/19 110/93/19
f 101/100/12 107/95/12 108/101/12
f 100/102/13 106/97/13 107/95/13
f 98/103/15 104/98/15 105/104/15
f 97/24/20 103/26/20 104/98/20
f 95/105/12 101/100/12 102/106/12
f 94/107/13 100/102/13 101/100/13
f 92/108/15 98/103/15 99/109/15
f 91/22/20 97/24/20 98/103/20
f 89/110/12 95/105/12 96/111/12
f 88/112/13 94/107/13 95/105/13
f 86/113/15 92/108/15 93/114/15
f 85/20/20 91/22/20 92/108/20
f 83/115/12 89/110/12 90/116/12
f 82/117/13 88/112/13 89/110/13
f 80/118/15 86/113/15 87/119/15
f 79/18/20 85/20/20 86/113/20
f 77/120/12 83/115/12 84/121/12
f 76/122/13 82/117/13 83/115/13
f 74/123/15 80/118/15 81/124/15
f 73/16/20 79/18/20 80/118/20
f 71/125/12 77/120/12 78/126/12
f 70/127/13 76/122/13 77/120/13
f 68/128/15 74/123/15 75/129/15
f 67/14/20 73/16/20 74/123/20
f 65/130/12 71/125/12 72/131/12
f 64/132/13 70/127/13 71/125/13
f 62/133/15 68/128/15 69/134/15
f 61/12/20 67/14/20 68/128/20
f 59/135/12 65/130/12 66/136/12
f 58/137/13 64/132/13 65/130/13
f 56/138/15 62/133/15 63/139/15
f 55/10/20 61/12/20 62/133/20
f 53/140/12 59/135/12 60/141/12
f 52/142/13 58/137/13 59/135/13
f 48/143/15 56/138/15 57/144/15
f 47/8/21 55/10/21 56/138/21
f 45/145/22 53/140/22 54/146/22
f 44/147/23 52/142/23 53/140/23
f 43/148/24 51/149/24 52/142/24
f 42/150/24 50/151/24 51/149/24
f 41/152/24 49/153/24 50/151/24
f 41/152/25 40/154/25 48/143/25
f 39/155/26 47/8/26 48/143/26
f 24/156/27 45/145/27 46/157/27
f 25/158/28 44/147/28 45/145/28
f 26/159/28 43/148/28 44/147/28
f 27/160/28 42/150/28 43/148/28
f 28/161/28 41/152/28 42/150/28
f 29/162/28 40/154/28 41/152/28
f 30/4/28 39/155/28 40/154/28
f 165/45/29 37/163/29 38/164/29
f 164/48/29 36/165/29 37/163/29
f 163/50/30 35/166/30 36/165/30
f 162/52/30 34/167/30 35/166/30
f 161/54/30 33/168/30 34/167/30
f 160/56/30 32/169/30 33/168/30
f 159/43/31 31/3/31 32/169/31
f 159/43/32 22/1/32 31/3/32
f 39/155/33 30/4/33 3/6/33
f 39/155/2 3/6/2 47/8/2
f 47/8/34 4/7/34 55/10/34
f 55/10/3 5/9/3 61/12/3
f 61/12/3 6/11/3 67/14/3
f 67/14/3 7/13/3 73/16/3
f 73/16/3 8/15/3 79/18/3
f 79/18/3 9/17/3 85/20/3
f 85/20/3 10/19/3 91/22/3
f 91/22/3 11/21/3 97/24/3
f 97/24/3 12/23/3 103/26/3
f 103/26/35 13/25/35 109/28/35
f 109/28/4 14/27/4 115/30/4
f 115/30/4 15/29/4 121/32/4
f 121/32/4 16/31/4 127/34/4
f 127/34/4 17/33/4 133/36/4
f 133/36/4 18/35/4 139/38/4
f 139/38/36 19/37/36 145/40/36
f 145/40/37 20/39/37 151/42/37
f 151/42/6 21/41/6 159/43/6
f 158/58/38 157/44/38 166/46/38
f 165/45/39 157/44/39 164/48/39
f 156/47/40 155/49/40 164/48/40
f 155/49/10 154/51/10 163/50/10
f 154/51/10 153/53/10 162/52/10
f 153/53/41 152/55/41 161/54/41
f 152/55/11 151/42/11 160/56/11
f 150/66/12 149/57/12 158/58/12
f 149/57/13 148/59/13 157/44/13
f 147/69/15 146/64/15 153/53/15
f 146/64/1 145/40/1 152/55/1
f 144/71/12 143/65/12 150/66/12
f 143/65/13 142/67/13 149/57/13
f 141/74/15 140/68/15 147/69/15
f 140/68/18 139/38/18 146/64/18
f 138/76/12 137/70/12 144/71/12
f 137/70/13 136/72/13 143/65/13
f 135/79/15 134/73/15 141/74/15
f 134/73/18 133/36/18 140/68/18
f 132/81/12 131/75/12 138/76/12
f 131/75/13 130/77/13 137/70/13
f 129/84/15 128/78/15 135/79/15
f 128/78/18 127/34/18 134/73/18
f 126/86/12 125/80/12 132/81/12
f 125/80/13 124/82/13 131/75/13
f 123/89/15 122/83/15 129/84/15
f 122/83/18 121/32/18 128/78/18
f 120/91/12 119/85/12 126/86/12
f 119/85/13 118/87/13 125/80/13
f 117/94/15 116/88/15 123/89/15
f 116/88/18 115/30/18 122/83/18
f 114/96/12 113/90/12 120/91/12
f 113/90/13 112/92/13 119/85/13
f 111/99/15 110/93/15 117/94/15
f 110/93/18 109/28/18 116/88/18
f 108/101/12 107/95/12 114/96/12
f 107/95/13 106/97/13 113/90/13
f 105/104/15 104/98/15 111/99/15
f 104/98/20 103/26/20 110/93/20
f 102/106/12 101/100/12 108/101/12
f 101/100/13 100/102/13 107/95/13
f 99/109/15 98/103/15 105/104/15
f 98/103/20 97/24/20 104/98/20
f 96/111/12 95/105/12 102/106/12
f 95/105/13 94/107/13 101/100/13
f 93/114/15 92/108/15 99/109/15
f 92/108/20 91/22/20 98/103/20
f 90/116/12 89/110/12 96/111/12
f 89/110/13 88/112/13 95/105/13
f 87/119/15 86/113/15 93/114/15
f 86/113/20 85/20/20 92/108/20
f 84/121/12 83/115/12 90/116/12
f 83/115/13 82/117/13 89/110/13
f 81/124/15 80/118/15 87/119/15
f 80/118/20 79/18/20 86/113/20
f 78/126/12 77/120/12 84/121/12
f 77/120/13 76/122/13 83/115/13
f 75/129/15 74/123/15 81/124/15
f 74/123/20 73/16/20 80/118/20
f 72/131/12 71/125/12 78/126/12
f 71/125/13 70/127/13 77/120/13
f 69/134/15 68/128/15 75/129/15
f 68/128/20 67/14/20 74/123/20
f 66/136/12 65/130/12 72/131/12
f 65/130/13 64/132/13 71/125/13
f 63/139/15 62/133/15 69/134/15
f 62/133/20 61/12/20 68/128/20
f 60/141/12 59/135/12 66/136/12
f 59/135/13 58/137/13 65/130/13
f 57/144/15 56/138/15 63/139/15
f 56/138/20 55/10/20 62/133/20
f 54/146/12 53/140/12 60/141/12
f 53/140/13 52/142/13 59/135/13
f 49/153/15 48/143/15 57/144/15
f 48/143/26 47/8/26 56/138/26
f 46/157/42 45/145/42 54/146/42
f 45/145/25 44/147/25 53/140/25
f 44/147/24 43/148/24 52/142/24
f 43/148/24 42/150/24 51/149/24
f 42/150/24 41/152/24 50/151/24
f 49/153/43 41/152/43 48/143/43
f 40/154/25 39/155/25 48/143/25
f 23/170/44 24/156/44 46/157/44
f 24/156/28 25/158/28 45/145/28
f 25/158/28 26/159/28 44/147/28
f 26/159/28 27/160/28 43/148/28
f 27/160/28 28/161/28 42/150/28
f 28/161/28 29/162/28 41/152/28
f 29/162/28 30/4/28 40/154/28
f 166/46/45 165/45/45 38/164/45
f 165/45/29 164/48/29 37/163/29
f 164/48/46 163/50/46 36/165/46
f 163/50/30 162/52/30 35/166/30
f 162/52/30 161/54/30 34/167/30
f 161/54/30 160/56/30 33/168/30
f 160/56/47 159/43/47 32/169/47
